<svg width="1427" height="696" viewBox="0 0 1427 696" fill="none" xmlns="http://www.w3.org/2000/svg">
<path d="M1267 429.034L1261.23 429.328L1264.37 434.175L1267 429.034ZM748.974 598.755C561.974 625.037 388.743 620.679 259.843 592.404C195.39 578.266 142.049 558.154 103.613 532.924C65.1766 507.694 41.6986 477.382 36.8451 442.847L35.8548 442.986C40.763 477.91 64.4916 508.44 103.064 533.76C141.638 559.081 195.108 579.228 259.628 593.381C388.672 621.687 562.026 626.039 749.113 599.746L748.974 598.755ZM36.8451 442.847C31.9916 408.313 46.2051 372.704 76.1981 337.856C106.19 303.009 151.922 268.974 209.981 237.618C326.094 174.908 491.413 122.971 678.413 96.6895L678.274 95.6993C491.187 121.993 325.748 173.959 209.505 236.738C151.386 268.127 105.54 302.232 75.4402 337.204C45.3408 372.175 30.9467 408.063 35.8548 442.986L36.8451 442.847ZM678.413 96.6895C865.413 70.4084 1038.64 74.766 1167.54 103.041C1232 117.179 1285.34 137.291 1323.77 162.521C1362.21 187.751 1385.69 218.063 1390.54 252.598L1391.53 252.459C1386.62 217.535 1362.9 187.005 1324.32 161.685C1285.75 136.364 1232.28 116.217 1167.76 102.064C1038.71 73.7577 865.36 69.406 678.274 95.6993L678.413 96.6895ZM1262.95 431.058C1146.9 505.579 962.007 568.815 748.974 598.755L749.113 599.746C962.237 569.793 1147.28 506.523 1263.49 431.899L1262.95 431.058ZM1390.54 252.598C1396.66 296.111 1372.5 341.335 1324.66 384.57L1325.34 385.312C1373.26 341.992 1397.72 296.461 1391.53 252.459L1390.54 252.598Z" fill="black"/>
</svg>
