<svg width="1440" height="787" viewBox="0 0 1440 787" fill="none" xmlns="http://www.w3.org/2000/svg">
<path d="M1277 503.297L1271.26 503.979L1274.72 508.603L1277 503.297ZM761.416 690.427C574.424 716.707 400.483 707.221 270.426 670.658C205.397 652.377 151.363 627.333 112.155 596.626C72.9495 565.922 48.5927 529.578 42.8454 488.684L41.8551 488.823C47.6483 530.044 72.1928 566.6 111.538 597.414C150.881 628.225 205.047 653.317 270.155 671.621C400.374 708.229 574.46 717.712 761.555 691.418L761.416 690.427ZM42.8454 488.684C37.0981 447.79 50.4936 406.14 79.7169 365.819C108.942 325.495 153.98 286.528 211.451 251.03C326.392 180.035 490.98 122.971 677.972 96.6914L677.832 95.7011C490.737 121.996 326.009 179.096 210.926 250.179C153.384 285.72 108.233 324.77 78.9072 365.232C49.5794 405.698 36.062 447.603 41.8551 488.823L42.8454 488.684ZM677.972 96.6914C864.963 70.4115 1038.9 79.8981 1168.96 116.461C1233.99 134.742 1288.02 159.786 1327.23 190.492C1366.44 221.196 1390.79 257.541 1396.54 298.435L1397.53 298.295C1391.74 257.075 1367.19 220.519 1327.85 189.705C1288.51 158.893 1234.34 133.802 1169.23 115.498C1039.01 78.8898 864.927 69.4066 677.832 95.7011L677.972 96.6914ZM1273.11 505.581C1158.53 590.544 974.524 660.477 761.416 690.427L761.555 691.418C974.773 661.452 1158.95 591.476 1273.7 506.384L1273.11 505.581ZM1396.54 298.435C1403.78 349.959 1380.63 402.69 1333.73 452.438L1334.46 453.124C1381.47 403.255 1404.83 350.235 1397.53 298.295L1396.54 298.435Z" fill="white"/>
</svg>
