<svg viewBox="0 0 177 54" fill="none" xmlns="http://www.w3.org/2000/svg">
<path d="M86.0002 4C64.7865 4 44.9303 5.02151 24.778 11.2222C14.6445 14.3402 -3.83561 21.7729 2.77796 35C10.1241 49.6924 32.8085 47.6825 46.778 48C62.6424 48.3606 78.325 52.5646 94.0002 53C111.082 53.4745 127.855 53.6268 144.778 53C150.147 52.8011 154.641 50 160 50C163.229 50 171.536 48.186 173.222 45C176.409 38.9811 176 33.7378 176 27C176 20.709 170.44 18.8687 165.778 16C147.257 4.60263 123.094 1.8789 102 1" stroke="currentColor" stroke-linecap="round" stroke-linejoin="round"/>
</svg>
