<svg width="160" height="160" viewBox="0 0 160 160" fill="none" xmlns="http://www.w3.org/2000/svg">
  <circle cx="80" cy="80" r="80" fill="#FBFF43"/>
  <path d="M119.368 87.2696V83.7696C131.368 74.2694 131.618 72.0199 133.868 70.2699C136.118 68.5199 140.118 62.5337 140.118 60.2699C140.118 58.5199 136.868 54.2699 135.368 51.0199C133.868 47.7699 132.885 45.118 130.118 40.7699C126.618 35.2699 125.868 34.5199 123.118 35.2699C120.894 35.8764 114.528 34.4252 110.118 33.0234C104.868 31.3549 101.368 31.7725 97.6176 33.9412C93.8942 36.0944 82.1176 38.7697 69.3675 42.7697C56.6175 46.7697 54.8675 45.0234 50.1175 47.5197C43.9171 50.7781 33.1175 53.5234 29.6175 55.0234C26.1708 56.5006 21.4403 56.7538 19.9404 58C19.4971 58.3683 17.371 63.8749 16.4406 69C15.5661 73.8169 14.1904 77.5 15.6177 78.7696C16.1904 79.2792 17.1193 80.9308 18.8675 82.0234C20.8675 83.2734 21.6175 86.8984 23.3675 87.5234C27.8675 89.1306 28.8677 91.7696 31.3677 92.0196C33.8677 92.2696 36.3677 93.0196 38.1177 93.2696C39.8677 93.5196 45.7032 93.3946 46.1177 94.0196C46.6175 94.7734 46.8675 95.2734 46.8675 100.023C46.8675 104.773 47.1177 114.52 47.1177 117.52C47.1177 120.52 48.1175 121.523 55.1177 124.27C60.2694 126.291 67.3677 127.77 80.3677 127.77C93.3677 127.77 103.118 126.52 108.368 125.52C113.618 124.52 116.618 121.02 117.618 119.77C118.618 118.52 118.868 116.02 118.868 112.77C118.868 109.52 119.047 99.3058 118.868 96.2697C118.618 92.0234 119.368 88.7696 119.368 87.2696Z" fill="black"/>
</svg>
