<svg width="32" height="32" viewBox="0 0 32 32" fill="none" xmlns="http://www.w3.org/2000/svg">
<circle cx="16" cy="16" r="16" fill="#F3C7F5"/>
<path d="M10.0795 11.5801C10.3211 11.2177 10.7279 11 11.1635 11V11C11.883 11 12.4663 11.5833 12.4663 12.3028V18C12.4663 19.1046 11.5708 20 10.4663 20H8.20331C6.60592 20 5.65314 18.2197 6.53921 16.8906L10.0795 11.5801Z" fill="black"/>
<path d="M14.4663 9C14.4663 7.89543 15.3617 7 16.4663 7L19.3882 7C22.7451 7 25.4663 9.72124 25.4663 13.0781C25.4663 14.6332 24.8702 16.1292 23.8006 17.2582L16.88 24.5633C16.6159 24.8421 16.2488 25 15.8648 25C15.0924 25 14.4663 24.3739 14.4663 23.6015V9Z" fill="black"/>
</svg>
