<svg width="24" height="24" viewBox="0 0 24 24" fill="none" xmlns="http://www.w3.org/2000/svg">
<path d="M13.3839 12.1438C13.3839 15.5369 10.6565 18.2877 7.29193 18.2877C3.9274 18.2877 1.2002 15.5377 1.2002 12.1438C1.2002 8.74977 3.92761 6 7.29193 6C10.6563 6 13.3839 8.7506 13.3839 12.1438Z" fill="currentColor"/>
<path d="M20.0665 12.1447C20.0665 15.339 18.7028 17.9282 17.0206 17.9282C15.3384 17.9282 13.9746 15.3381 13.9746 12.1447C13.9746 8.95135 15.3384 6.36133 17.0206 6.36133C18.7028 6.36133 20.0665 8.95135 20.0665 12.1447Z" fill="currentColor"/>
<path d="M22.7999 12.1446C22.7999 15.0064 22.3202 17.3263 21.7286 17.3263C21.137 17.3263 20.6572 15.0056 20.6572 12.1446C20.6572 9.28355 21.137 6.96289 21.7288 6.96289C22.3206 6.96289 22.7999 9.28292 22.7999 12.1446Z" fill="currentColor"/>
</svg>
