<svg width="24" height="24" viewBox="0 0 24 24" fill="none" xmlns="http://www.w3.org/2000/svg">
<path d="M10.3868 11.0781C9.87868 11.0781 9.47754 11.5238 9.47754 12.0676C9.47754 12.6114 9.8876 13.0571 10.3868 13.0571C10.8949 13.0571 11.2961 12.6114 11.2961 12.0676C11.305 11.5238 10.8949 11.0781 10.3868 11.0781ZM13.6405 11.0781C13.1324 11.0781 12.7313 11.5238 12.7313 12.0676C12.7313 12.6114 13.1413 13.0571 13.6405 13.0571C14.1486 13.0571 14.5498 12.6114 14.5498 12.0676C14.5498 11.5238 14.1486 11.0781 13.6405 11.0781Z" fill="currentColor"/>
<path d="M17.9728 3.59961H6.02762C5.02031 3.59961 4.2002 4.41972 4.2002 5.43595V17.4881C4.2002 18.5043 5.02031 19.3244 6.02762 19.3244H16.1364L15.664 17.6753L16.805 18.7361L17.8836 19.7345L19.8002 21.4282V5.43595C19.8002 4.41972 18.9801 3.59961 17.9728 3.59961ZM14.5319 15.2417C14.5319 15.2417 14.2109 14.8584 13.9435 14.5196C15.1113 14.1898 15.557 13.4588 15.557 13.4588C15.1915 13.6995 14.8439 13.8689 14.5319 13.9848C14.0861 14.172 13.6583 14.2968 13.2393 14.3681C12.3835 14.5285 11.5991 14.484 10.9305 14.3591C10.4224 14.2611 9.98557 14.1185 9.62008 13.9758C9.41505 13.8956 9.19219 13.7976 8.96934 13.6728C8.9426 13.6549 8.91585 13.646 8.88911 13.6282C8.87128 13.6193 8.86237 13.6104 8.85345 13.6014C8.69299 13.5123 8.60385 13.4499 8.60385 13.4499C8.60385 13.4499 9.03174 14.163 10.1639 14.5018C9.89642 14.8405 9.56659 15.2417 9.56659 15.2417C7.59654 15.1793 6.84774 13.8867 6.84774 13.8867C6.84774 11.0163 8.13139 8.68967 8.13139 8.68967C9.41505 7.72692 10.6363 7.75367 10.6363 7.75367L10.7255 7.86064C9.12088 8.32418 8.381 9.02841 8.381 9.02841C8.381 9.02841 8.57711 8.92144 8.90694 8.76989C9.86077 8.35092 10.6185 8.23504 10.9305 8.20829C10.984 8.19938 11.0285 8.19047 11.082 8.19047C11.6258 8.11915 12.2409 8.10132 12.8827 8.17264C13.7296 8.27069 14.6388 8.52029 15.5659 9.02841C15.5659 9.02841 14.8617 8.35984 13.3463 7.89629L13.4711 7.75367C13.4711 7.75367 14.6923 7.72692 15.976 8.68967C15.976 8.68967 17.2596 11.0163 17.2596 13.8867C17.2596 13.8867 16.5019 15.1793 14.5319 15.2417Z" fill="currentColor"/>
</svg>
