<svg width="117" height="32" viewBox="0 0 117 32" fill="none" xmlns="http://www.w3.org/2000/svg">
<rect width="117" height="32" rx="8" fill="#CCEE6B"/>
<path d="M11.0429 15.0754H21.7282V8.21716H24.7711V25H21.7282V18.1417H11.0429V25H8V8.21716H11.0429V15.0754ZM40.9922 20.8102C40.9922 21.2314 40.918 21.6879 40.7698 22.1795C40.6216 22.6632 40.3797 23.1157 40.0442 23.5371C39.7165 23.9506 39.2835 24.2978 38.7452 24.5786C38.2145 24.8595 37.567 25 36.8023 25H31.3134C30.8921 25 30.4357 24.9259 29.9441 24.7776C29.4604 24.6294 29.0078 24.3914 28.5865 24.0638C28.1729 23.7282 27.8258 23.2952 27.5449 22.7646C27.264 22.2262 27.1235 21.5747 27.1235 20.8102C27.1235 20.3888 27.1976 19.9324 27.3459 19.4408C27.4942 18.9493 27.7321 18.4967 28.0598 18.0832C28.3953 17.6619 28.8284 17.3108 29.3589 17.0299C29.8973 16.7491 30.5488 16.6086 31.3134 16.6086H36.8023V19.511H31.3134C30.8998 19.511 30.58 19.6398 30.3537 19.8973C30.1274 20.147 30.0143 20.4591 30.0143 20.8336C30.0143 21.2314 30.143 21.5435 30.4005 21.7698C30.6658 21.9883 30.9779 22.0975 31.3368 22.0975H36.8023C37.2159 22.0975 37.5358 21.9727 37.7621 21.723C37.9883 21.4734 38.1014 21.1613 38.1014 20.7867V16.5383C38.1014 16.1404 37.9766 15.8244 37.7269 15.5904C37.4851 15.3563 37.1768 15.2393 36.8023 15.2393H30.1196V12.3485H36.8023C37.2237 12.3485 37.6762 12.4226 38.1599 12.5709C38.6515 12.7191 39.104 12.961 39.5175 13.2965C39.9389 13.6242 40.29 14.0572 40.5709 14.5956C40.8518 15.1261 40.9922 15.7738 40.9922 16.5383V20.8102ZM55.8205 20.7282C55.8205 21.251 55.7542 21.723 55.6216 22.1443C55.4889 22.5578 55.3134 22.9246 55.0949 23.2445C54.8764 23.5566 54.6229 23.8258 54.3342 24.052C54.0455 24.2705 53.7412 24.4499 53.4213 24.5904C53.1093 24.7308 52.7893 24.8361 52.4616 24.9064C52.1417 24.9688 51.8374 25 51.5487 25H43.3095V21.9571H51.5254C51.9389 21.9571 52.251 21.8517 52.4616 21.6411C52.6723 21.4304 52.7777 21.1261 52.7777 20.7282C52.7386 19.9167 52.329 19.511 51.5487 19.511H46.8322C46.1612 19.511 45.5916 19.394 45.1235 19.1599C44.6554 18.9259 44.2731 18.6333 43.9766 18.2822C43.6879 17.9311 43.4772 17.5526 43.3446 17.1469C43.2197 16.7412 43.1573 16.3628 43.1573 16.0117C43.1573 15.3329 43.2783 14.7633 43.5201 14.303C43.7621 13.8348 44.0663 13.4564 44.433 13.1678C44.7998 12.8791 45.1976 12.6723 45.6268 12.5475C46.0559 12.4148 46.4577 12.3485 46.8322 12.3485H54.3108V15.3914H46.8556C46.6996 15.3914 46.5748 15.411 46.4811 15.4499C46.3953 15.4811 46.329 15.528 46.2822 15.5904C46.2432 15.645 46.2198 15.7074 46.2119 15.7776C46.2041 15.8401 46.2003 15.9025 46.2003 15.9649C46.2081 16.0897 46.2315 16.1873 46.2705 16.2574C46.3095 16.3277 46.3563 16.3784 46.4109 16.4096C46.4733 16.4408 46.5397 16.4604 46.6099 16.4682C46.6879 16.4682 46.762 16.4682 46.8322 16.4682H51.5487C52.329 16.4682 52.9922 16.6086 53.5383 16.8894C54.0845 17.1703 54.5253 17.5254 54.8609 17.9545C55.1963 18.3758 55.4383 18.8361 55.5865 19.3355C55.7425 19.8349 55.8205 20.2991 55.8205 20.7282ZM72.0299 25H68.987V16.6086C68.987 16.2107 68.8855 15.9103 68.6827 15.7074C68.4798 15.4968 68.1756 15.3914 67.7699 15.3914H62.2809V12.3485H67.7699C68.0586 12.3485 68.3628 12.3836 68.6827 12.4538C69.0026 12.5163 69.3186 12.6177 69.6307 12.7581C69.9506 12.8986 70.2549 13.0819 70.5435 13.3082C70.8322 13.5267 71.0859 13.7958 71.3043 14.1157C71.5228 14.4278 71.6983 14.7906 71.831 15.2042C71.9636 15.6177 72.0299 16.0859 72.0299 16.6086V25ZM61.052 25H58.0091V7H61.052V25ZM88.9532 18.1417H79.3446V15.0754H88.9532V18.1417ZM90.3225 25H79.3446C78.9233 25 78.463 24.9259 77.9636 24.7776C77.4642 24.6294 77 24.3875 76.5709 24.052C76.1495 23.7087 75.7945 23.2679 75.5058 22.7295C75.225 22.1833 75.0846 21.5163 75.0846 20.7282V9.75032C75.0846 9.53966 75.1235 9.34071 75.2016 9.15345C75.2796 8.96619 75.3849 8.80234 75.5175 8.6619C75.658 8.52146 75.8219 8.41223 76.0091 8.3342C76.1964 8.25618 76.3992 8.21716 76.6177 8.21716H90.3225V11.2601H78.1274V20.7282C78.1274 21.1261 78.2327 21.4304 78.4435 21.6411C78.6541 21.8517 78.9623 21.9571 79.368 21.9571H90.3225V25ZM107.386 12.3485L101.921 18.3173L108.077 25H103.887L99.8379 20.5878L95.7882 25H91.5863L97.7307 18.2939L92.289 12.3485H96.4549L99.8144 16.0117L103.197 12.3485H107.386Z" fill="black"/>
</svg>
