<svg width="202" height="156" viewBox="0 0 202 156" fill="none" xmlns="http://www.w3.org/2000/svg">
<path d="M167.832 89.8749V84.2468C187.014 68.9703 187.413 65.3529 191.009 62.5389C194.606 59.7248 201 50.099 201 46.4586C201 43.6446 195.805 36.8105 193.407 31.5844C191.009 26.3583 189.438 22.0941 185.015 15.1022C179.42 6.25804 178.221 5.05201 173.826 6.25803C170.271 7.23329 160.096 4.89977 153.045 2.64569C144.653 -0.0373152 139.058 0.634145 133.064 4.12142C127.112 7.58393 108.287 11.8858 87.9064 18.3179C67.5256 24.75 64.7282 21.942 57.1353 25.956C47.224 31.1957 29.9609 35.6102 24.3662 38.0222C18.8566 40.3975 11.2948 40.8047 8.89733 42.8086C8.18872 43.4009 4.79005 52.2556 3.30281 60.4969C1.90498 68.2427 -0.294031 74.1651 1.98739 76.2067C2.90296 77.0261 4.38778 79.682 7.18226 81.4389C10.3793 83.449 11.5781 89.278 14.3755 90.2831C21.5687 92.8674 23.1675 97.111 27.1637 97.5131C31.16 97.9151 35.1562 99.1211 37.9536 99.5231C40.7509 99.9251 50.079 99.724 50.7415 100.729C51.5405 101.941 51.9402 102.745 51.9402 110.383C51.9402 118.021 52.34 133.694 52.34 138.518C52.34 143.342 53.9383 144.956 65.128 149.372C73.363 152.622 84.7096 155 105.49 155C126.271 155 141.856 152.99 150.248 151.382C158.64 149.774 163.436 144.146 165.034 142.136C166.633 140.126 167.032 136.106 167.032 130.88C167.032 125.654 167.318 109.229 167.032 104.347C166.632 97.5192 167.832 92.287 167.832 89.8749Z" fill="none" stroke="currentColor"/>
</svg>
