<svg width="20" height="20" viewBox="0 0 20 20" fill="none" xmlns="http://www.w3.org/2000/svg">
<path fill-rule="evenodd" clip-rule="evenodd" d="M4 0C1.79086 0 0 1.79086 0 4V16C0 18.2091 1.79086 20 4 20H16C18.2091 20 20 18.2091 20 16V4C20 1.79086 18.2091 0 16 0H4ZM6.72414 7.90303V15.9998H4.15173V7.90303H6.72414ZM6.89362 5.399C6.89362 6.17598 6.33526 6.79776 5.43838 6.79776H5.43816H5.42152C4.55813 6.79776 4 6.17598 4 5.399C4 4.60437 4.57499 4 5.45546 4C6.33526 4 6.87676 4.60437 6.89362 5.399ZM10.7201 15.9998H8.14791C8.14813 15.9521 8.18151 8.66037 8.14813 7.90327H10.7203V9.04948C11.0622 8.49786 11.6742 7.71326 13.0387 7.71326C14.7311 7.71326 16 8.8705 16 11.3574V15.9998H13.4278V11.6687C13.4278 10.5802 13.0554 9.83774 12.1248 9.83774C11.414 9.83774 10.9907 10.3384 10.8048 10.8221C10.7369 10.9947 10.7201 11.237 10.7201 11.4787V15.9998ZM8.14791 16V15.9998Z" fill="currentColor"/>
</svg>
