<svg width="126" height="21" viewBox="0 0 126 21" fill="none" xmlns="http://www.w3.org/2000/svg">
<path d="M5.71326 1.00535C7.24507 1.00535 8.39048 1.32855 9.14949 1.97494C9.9154 2.61438 10.2984 3.5249 10.2984 4.70648C10.2984 5.47103 10.1431 6.1209 9.8326 6.65608C9.529 7.18432 9.14259 7.59092 8.67339 7.87589C8.20418 8.16086 7.72118 8.32072 7.22437 8.35547C7.74878 8.36937 8.27318 8.49795 8.79759 8.74122C9.32889 8.98449 9.7705 9.37371 10.1224 9.9089C10.4743 10.4441 10.6503 11.1635 10.6503 12.067C10.6503 13.3529 10.2604 14.3954 9.4807 15.1947C8.70789 15.9871 7.43483 16.3833 5.66151 16.3833H0V1.00535H5.71326ZM5.0198 3.19475H2.60823V7.34418H4.78175C5.68566 7.34418 6.37566 7.15304 6.85177 6.77076C7.32787 6.38849 7.56593 5.84983 7.56593 5.15478C7.56593 4.45973 7.34167 3.9593 6.89317 3.65348C6.45156 3.34766 5.82711 3.19475 5.0198 3.19475ZM5.1233 14.1939C6.00651 14.1939 6.68617 13.9923 7.16227 13.5892C7.63838 13.186 7.87643 12.6231 7.87643 11.9002C7.87643 11.0592 7.59698 10.4545 7.03807 10.0861C6.47917 9.71081 5.77881 9.52315 4.937 9.52315H2.60823V14.1939H5.1233Z" fill="currentColor"/>
<path d="M18.0585 16.6022C16.8993 16.6022 15.8781 16.3589 14.9949 15.8724C14.1117 15.3789 13.4182 14.6978 12.9145 13.829C12.4177 12.9602 12.1693 11.9662 12.1693 10.8472C12.1693 9.72124 12.4177 8.73079 12.9145 7.87589C13.4182 7.01403 14.1117 6.33983 14.9949 5.8533C15.8781 5.36677 16.8993 5.1235 18.0585 5.1235C19.2177 5.1235 20.2389 5.36677 21.1221 5.8533C22.0053 6.33983 22.6954 7.01403 23.1922 7.87589C23.6959 8.73079 23.9477 9.72124 23.9477 10.8472C23.9477 11.9662 23.6959 12.9602 23.1922 13.829C22.6954 14.6978 22.0053 15.3789 21.1221 15.8724C20.2389 16.3589 19.2177 16.6022 18.0585 16.6022ZM18.0585 14.3607C18.99 14.3607 19.7456 14.0409 20.3252 13.4015C20.9048 12.7551 21.1946 11.9037 21.1946 10.8472C21.1946 9.78379 20.9048 8.93931 20.3252 8.31377C19.7456 7.68822 18.99 7.37545 18.0585 7.37545C17.127 7.37545 16.3714 7.68822 15.7918 8.31377C15.2122 8.93931 14.9224 9.78379 14.9224 10.8472C14.9224 11.9037 15.2122 12.7551 15.7918 13.4015C16.3714 14.0409 17.127 14.3607 18.0585 14.3607Z" fill="currentColor"/>
<path d="M25.7858 16.3833V5.31117H28.5079V6.97928C28.9288 6.40239 29.4636 5.95061 30.1122 5.62394C30.7677 5.29031 31.4749 5.1235 32.2339 5.1235C33.5588 5.1235 34.5662 5.50925 35.2562 6.28076C35.9462 7.05226 36.2912 8.0844 36.2912 9.37719V16.3833H33.5588V10.1591C33.5588 9.40846 33.3932 8.78292 33.062 8.28249C32.7308 7.77511 32.1132 7.52141 31.2093 7.52141C30.4158 7.52141 29.7672 7.79943 29.2635 8.35547C28.7598 8.91151 28.5079 9.61698 28.5079 10.4719V16.3833H25.7858Z" fill="currentColor"/>
<path d="M43.0558 16.6126C42.145 16.6126 41.3066 16.3937 40.5407 15.9558C39.7748 15.511 39.1607 14.8576 38.6984 13.9958C38.2361 13.1339 38.0049 12.074 38.0049 10.8159C38.0049 9.59265 38.2395 8.55703 38.7087 7.70908C39.1848 6.86112 39.8059 6.2182 40.5718 5.78032C41.3446 5.34244 42.1726 5.1235 43.0558 5.1235C43.7251 5.1235 44.3599 5.25556 44.9602 5.51968C45.5605 5.7838 46.0815 6.15217 46.5231 6.6248V0.0878906H49.2555V16.3833H46.5231V15.0592C46.0884 15.5388 45.5743 15.9176 44.9809 16.1956C44.3875 16.4736 43.7458 16.6126 43.0558 16.6126ZM43.6871 14.1939C44.1908 14.1939 44.6566 14.0722 45.0844 13.829C45.5122 13.5857 45.8572 13.2521 46.1194 12.8281C46.3885 12.3972 46.5231 11.9037 46.5231 11.3476V10.2112C46.5231 9.66911 46.3851 9.193 46.1091 8.78292C45.84 8.3659 45.4881 8.0427 45.0534 7.81333C44.6256 7.57702 44.1701 7.45886 43.6871 7.45886C42.8936 7.45886 42.2174 7.72993 41.6585 8.27206C41.0996 8.80725 40.8202 9.65521 40.8202 10.8159C40.8202 11.9697 41.0996 12.8211 41.6585 13.3702C42.2174 13.9193 42.8936 14.1939 43.6871 14.1939Z" fill="currentColor"/>
<path d="M50.8062 16.3833L54.7496 0.9845H59.0553L62.9676 16.3833H60.1627L59.2726 12.6404H54.5116L53.6111 16.3833H50.8062ZM55.0394 10.4406H58.7448L56.9025 2.72559L55.0394 10.4406Z" fill="currentColor"/>
<path d="M64.5696 20.9393V5.31117H67.2917V6.63523C67.7402 6.15565 68.2611 5.7838 68.8546 5.51968C69.4549 5.25556 70.0897 5.1235 70.759 5.1235C71.6491 5.1235 72.4771 5.34244 73.243 5.78032C74.0158 6.2182 74.6368 6.86112 75.106 7.70908C75.5821 8.55703 75.8202 9.59265 75.8202 10.8159C75.8202 12.074 75.589 13.1339 75.1267 13.9958C74.6644 14.8576 74.0469 15.511 73.2741 15.9558C72.5081 16.3937 71.6698 16.6126 70.759 16.6126C70.0897 16.6126 69.4549 16.4736 68.8546 16.1956C68.2611 15.9176 67.7402 15.5318 67.2917 15.0383V20.9393H64.5696ZM67.302 11.3998C67.302 11.9489 67.4366 12.4319 67.7057 12.8489C67.9748 13.266 68.3232 13.5961 68.7511 13.8394C69.1858 14.0757 69.6481 14.1939 70.138 14.1939C70.9315 14.1939 71.6077 13.9193 72.1666 13.3702C72.7255 12.8211 73.005 11.9697 73.005 10.8159C73.005 9.65521 72.7255 8.80725 72.1666 8.27206C71.6077 7.72993 70.9315 7.45886 70.138 7.45886C69.655 7.45886 69.1961 7.57702 68.7614 7.81333C68.3336 8.0427 67.9817 8.3659 67.7057 8.78292C67.4366 9.193 67.302 9.66911 67.302 10.2112H67.2917V11.2955H67.302V11.3998Z" fill="currentColor"/>
<path d="M77.6593 20.9393V5.31117H80.3813V6.63523C80.8298 6.15565 81.3508 5.7838 81.9442 5.51968C82.5445 5.25556 83.1793 5.1235 83.8486 5.1235C84.7387 5.1235 85.5667 5.34244 86.3326 5.78032C87.1055 6.2182 87.7265 6.86112 88.1957 7.70908C88.6718 8.55703 88.9098 9.59265 88.9098 10.8159C88.9098 12.074 88.6787 13.1339 88.2164 13.9958C87.7541 14.8576 87.1365 15.511 86.3637 15.9558C85.5978 16.3937 84.7594 16.6126 83.8486 16.6126C83.1793 16.6126 82.5445 16.4736 81.9442 16.1956C81.3508 15.9176 80.8298 15.5318 80.3813 15.0383V20.9393H77.6593ZM80.3917 11.3998C80.3917 11.9489 80.5262 12.4319 80.7953 12.8489C81.0644 13.266 81.4129 13.5961 81.8407 13.8394C82.2754 14.0757 82.7377 14.1939 83.2276 14.1939C84.0211 14.1939 84.6973 13.9193 85.2562 13.3702C85.8151 12.8211 86.0946 11.9697 86.0946 10.8159C86.0946 9.65521 85.8151 8.80725 85.2562 8.27206C84.6973 7.72993 84.0211 7.45886 83.2276 7.45886C82.7446 7.45886 82.2858 7.57702 81.8511 7.81333C81.4232 8.0427 81.0713 8.3659 80.7953 8.78292C80.5262 9.193 80.3917 9.66911 80.3917 10.2112H80.3813V11.2955H80.3917V11.3998Z" fill="currentColor"/>
<path d="M101.792 12.8906C101.73 13.5092 101.475 14.1035 101.027 14.6734C100.585 15.2434 99.9536 15.7125 99.1325 16.0809C98.3183 16.4423 97.3281 16.623 96.162 16.623C94.9821 16.623 93.9505 16.3798 93.0673 15.8932C92.1841 15.4067 91.4941 14.7325 90.9973 13.8707C90.5074 13.0019 90.2625 12.0045 90.2625 10.8785C90.2625 9.73166 90.5108 8.72732 91.0077 7.86546C91.5114 7.0036 92.2048 6.33288 93.088 5.8533C93.9781 5.36677 95.0028 5.1235 96.162 5.1235C97.3488 5.1235 98.3735 5.36677 99.236 5.8533C100.105 6.33983 100.775 7.0175 101.244 7.88631C101.713 8.75512 101.948 9.75946 101.948 10.8993C101.948 11.2608 101.934 11.5388 101.906 11.7334H93.0156C93.1536 12.5883 93.4986 13.2555 94.0506 13.7351C94.6026 14.2078 95.3374 14.4441 96.2552 14.4441C97.2212 14.4441 97.9215 14.2773 98.3562 13.9436C98.7978 13.6031 99.0393 13.2521 99.0807 12.8906H101.792ZM96.1931 7.2712C95.3651 7.2712 94.675 7.49014 94.123 7.92802C93.571 8.3659 93.2122 8.98449 93.0466 9.78379H99.1325C99.0773 9.11655 98.8082 8.53271 98.3252 8.03227C97.8422 7.52489 97.1315 7.2712 96.1931 7.2712ZM94.5991 3.73689L97.0625 1.00535H99.2463L96.4725 3.73689H94.5991Z" fill="currentColor"/>
<path d="M108.829 16.5918C108.435 16.5918 108.035 16.5535 107.628 16.4771C107.228 16.4076 106.855 16.2686 106.51 16.0601C106.172 15.8446 105.9 15.5353 105.693 15.1322C105.486 14.729 105.382 14.1973 105.382 13.537V7.50056H102.784V5.31117H103.84C104.316 5.31117 104.661 5.27989 104.875 5.21733C105.096 5.14783 105.234 4.98102 105.289 4.7169C105.351 4.45278 105.382 4.02185 105.382 3.42411V1.66217H108.115V5.31117H111.385V7.50056H108.115V12.703C108.115 13.2243 108.173 13.6413 108.291 13.9541C108.415 14.2599 108.711 14.4128 109.181 14.4128C109.401 14.4128 109.608 14.3919 109.802 14.3502C110.002 14.3085 110.15 14.2668 110.247 14.2251V16.3728C110.109 16.4215 109.916 16.4701 109.667 16.5188C109.426 16.5674 109.146 16.5918 108.829 16.5918Z" fill="currentColor"/>
<path d="M114.331 3.26773C113.889 3.26773 113.503 3.14957 113.172 2.91325C112.847 2.66999 112.685 2.33289 112.685 1.90196C112.685 1.47798 112.847 1.14784 113.172 0.911521C113.503 0.675205 113.889 0.557047 114.331 0.557047C114.766 0.557047 115.145 0.675205 115.469 0.911521C115.794 1.14784 115.956 1.47798 115.956 1.90196C115.956 2.33984 115.794 2.67694 115.469 2.91325C115.145 3.14957 114.766 3.26773 114.331 3.26773ZM112.975 16.3833V5.31117H115.666V16.3833H112.975Z" fill="currentColor"/>
<path d="M123 16.5918C122.607 16.5918 122.207 16.5535 121.8 16.4771C121.4 16.4076 121.027 16.2686 120.682 16.0601C120.344 15.8446 120.071 15.5353 119.864 15.1322C119.657 14.729 119.554 14.1973 119.554 13.537V7.50056H116.956V5.31117H118.012C118.488 5.31117 118.833 5.27989 119.047 5.21733C119.267 5.14783 119.405 4.98102 119.461 4.7169C119.523 4.45278 119.554 4.02185 119.554 3.42411V1.66217H122.286V5.31117H125.557V7.50056H122.286V12.703C122.286 13.2243 122.345 13.6413 122.462 13.9541C122.586 14.2599 122.883 14.4128 123.352 14.4128C123.573 14.4128 123.78 14.3919 123.973 14.3502C124.173 14.3085 124.322 14.2668 124.418 14.2251V16.3728C124.28 16.4215 124.087 16.4701 123.839 16.5188C123.597 16.5674 123.318 16.5918 123 16.5918Z" fill="currentColor"/>
</svg>
