<svg width="147" height="32" viewBox="0 0 147 32" fill="none" xmlns="http://www.w3.org/2000/svg">
<rect width="147" height="32" rx="8" fill="#29C278"/>
<path d="M16.8073 14.3948L16.9209 11.9393H16.7851L14.2495 16.0618H13.7061L11.0569 11.9393H10.9433L11.0791 14.1467V22.7933H8.13477V7.03125H11.2829L14 11.3994H14.0902L16.7851 7.03125H19.9102V22.7933H16.8073V14.3948Z" fill="white"/>
<path d="M22.1494 20.3174H26.1356V14.0112H22.1494V11.5357H29.0779V20.3174H33.2674V22.7937H22.1494V20.3174ZM25.591 8.47272C25.591 8.00807 25.7655 7.61015 26.1138 7.27978C26.4604 6.94941 26.9436 6.7832 27.5619 6.7832C28.1958 6.7832 28.7025 6.94941 29.08 7.27978C29.4578 7.61015 29.6468 8.00807 29.6468 8.47272C29.6468 8.95334 29.4578 9.34839 29.08 9.65624C28.7033 9.9641 28.1966 10.1168 27.5619 10.1168C26.9436 10.1168 26.4604 9.9641 26.1138 9.65624C25.7647 9.34839 25.591 8.95334 25.591 8.47272Z" fill="white"/>
<path d="M39.1776 16.9844L35.2371 11.5352H38.747L41.3057 15.2957L43.9776 11.5352H47.1697L43.2984 16.9402L47.3945 22.7931H43.9776L41.1023 18.6506L38.1814 22.7931H34.9658L39.1776 16.9844Z" fill="white"/>
<path d="M60.052 10.7011C60.052 11.0929 60.0031 11.4814 59.9043 11.8715C59.8071 12.2633 59.6449 12.6174 59.4177 12.942C59.1926 13.2642 58.8966 13.5512 58.5344 13.7977C58.1713 14.0449 57.7354 14.2304 57.2205 14.3495V14.4846C57.6749 14.5591 58.1038 14.686 58.5117 14.8686C58.9201 15.0479 59.2745 15.2956 59.577 15.6108C59.8779 15.9264 60.1158 16.3088 60.29 16.7599C60.4633 17.2107 60.5501 17.7429 60.5501 18.3569C60.5501 19.1671 60.3764 19.8688 60.0278 20.4636C59.6816 21.0552 59.2173 21.5411 58.6365 21.9149C58.0552 22.2899 57.3929 22.5678 56.6557 22.748C55.9136 22.9281 55.1521 23.0182 54.3667 23.0182C54.1098 23.0182 53.7822 23.0182 53.3816 23.0182C52.982 23.0182 52.5502 23.0083 52.0912 22.9862C51.6306 22.9617 51.1618 22.9281 50.6867 22.8831C50.2125 22.8388 49.7779 22.7721 49.3848 22.68V7.14397C49.6708 7.09853 50.0006 7.0535 50.3694 7.00806C50.7398 6.96507 51.1362 6.92823 51.5602 6.89711C51.9813 6.86682 52.4168 6.8443 52.8609 6.82752C53.3059 6.81483 53.7476 6.80664 54.1868 6.80664C54.9261 6.80664 55.6472 6.86191 56.3482 6.97449C57.0501 7.08707 57.6774 7.28562 58.2265 7.57096C58.7776 7.85793 59.2193 8.25462 59.5527 8.76553C59.8857 9.2748 60.052 9.92163 60.052 10.7011ZM53.3479 13.6515C53.5624 13.6515 53.8126 13.6433 54.0971 13.6306C54.3823 13.6138 54.6178 13.5913 54.803 13.5627C55.3867 13.3834 55.8922 13.1173 56.3157 12.7599C56.7376 12.4033 56.95 11.9362 56.95 11.3573C56.95 10.9705 56.8726 10.6495 56.7183 10.3977C56.5635 10.1451 56.3606 9.94537 56.1074 9.79636C55.8531 9.64857 55.5649 9.54377 55.2414 9.48523C54.9182 9.42586 54.5803 9.39475 54.2251 9.39475C53.8246 9.39475 53.4562 9.40294 53.1166 9.41809C52.7786 9.43241 52.5168 9.45493 52.3332 9.48359V13.6511L53.3479 13.6515ZM54.3465 20.4305C54.7231 20.4305 55.0903 20.385 55.4447 20.2945C55.7991 20.2057 56.1128 20.069 56.3836 19.8843C56.657 19.6981 56.8739 19.4631 57.041 19.1806C57.2069 18.899 57.2896 18.5633 57.2896 18.1764C57.2896 17.6864 57.1917 17.2991 56.9945 17.0195C56.7973 16.7358 56.5413 16.518 56.2235 16.3616C55.9066 16.2056 55.553 16.1057 55.1603 16.0611C54.7684 16.0173 54.3761 15.9948 53.9839 15.9948H52.3316V20.2966C52.4061 20.3269 52.5267 20.3486 52.693 20.3645C52.8589 20.3781 53.0367 20.3903 53.2252 20.3973C53.4142 20.4059 53.6101 20.4124 53.8139 20.4214C54.0184 20.4272 54.1954 20.4305 54.3465 20.4305Z" fill="white"/>
<path d="M68.3834 19.6196H69.2458L71.4422 11.5352H74.4755L71.2594 21.6907C70.9734 22.5311 70.693 23.302 70.4226 23.9976C70.1501 24.698 69.8327 25.3018 69.4713 25.8111C69.1091 26.3228 68.6814 26.7171 68.192 26.9938C67.7017 27.2714 67.1028 27.4118 66.3911 27.4118C66.0449 27.4118 65.7161 27.3672 65.4065 27.2767C65.0978 27.1854 64.8129 27.0786 64.5573 26.9512C64.3001 26.8219 64.0741 26.6868 63.8781 26.5451C63.6818 26.4027 63.5233 26.2709 63.4044 26.1517L64.9208 24.1466C65.118 24.3128 65.3518 24.4655 65.6226 24.6088C65.8939 24.7512 66.1507 24.8221 66.3915 24.8221C66.8456 24.8221 67.2041 24.6653 67.4679 24.3496C67.7322 24.0344 67.9849 23.5173 68.2262 22.7952H66.6188L61.9102 11.5372H65.1027L68.3834 19.6196Z" fill="white"/>
<path d="M77.7797 14.0106H75.54V11.5351H77.7797V8.96704L80.7224 8.13477V11.5355H86.6548V14.011H80.7224V17.2325C80.7224 18.3873 80.9406 19.2237 81.379 19.7424C81.8165 20.2619 82.429 20.5206 83.2136 20.5206C83.6199 20.5206 83.9903 20.4703 84.3217 20.374C84.6543 20.2774 84.9506 20.1534 85.2174 20.0023C85.4808 19.8525 85.7228 19.6867 85.9414 19.5074C86.1596 19.3264 86.3617 19.1619 86.5412 19.0124L87.8999 21.0385C87.6427 21.3377 87.3237 21.6112 86.9376 21.8605C86.5527 22.1074 86.1386 22.3272 85.6928 22.5143C85.2478 22.7006 84.7835 22.8471 84.2999 22.9519C83.8174 23.0567 83.3424 23.1099 82.8727 23.1099C81.1834 23.1099 79.9119 22.6408 79.0578 21.7025C78.2057 20.7646 77.7789 19.274 77.7789 17.2329V14.0114L77.7797 14.0106Z" fill="white"/>
<path d="M100.828 21.6002C100.633 21.7807 100.38 21.9567 100.07 22.1295C99.7619 22.3023 99.3988 22.4644 98.9839 22.6142C98.5665 22.7645 98.1125 22.8836 97.614 22.9741C97.1164 23.0645 96.5866 23.1075 96.0276 23.1075C95.0607 23.1075 94.1984 22.9741 93.4348 22.703C92.6729 22.4345 92.0279 22.0394 91.4997 21.5212C90.9716 21.0045 90.5666 20.3819 90.2904 19.6519C90.0084 18.9261 89.8701 18.0967 89.8701 17.1653C89.8701 16.1755 90.0278 15.308 90.3439 14.5637C90.6613 13.8215 91.0959 13.2037 91.6471 12.7063C92.197 12.2122 92.8441 11.8413 93.5813 11.5908C94.321 11.3443 95.1204 11.2207 95.9819 11.2207C96.5566 11.2207 97.1481 11.296 97.7581 11.4463C98.3698 11.5957 98.9325 11.8557 99.4466 12.2233C99.9599 12.5901 100.378 13.0822 100.702 13.6979C101.027 14.3136 101.19 15.0947 101.19 16.0408C101.19 16.6847 101.114 17.3827 100.963 18.1343H92.8124C92.8272 18.6154 92.9281 19.0211 93.117 19.3502C93.306 19.6806 93.5546 19.9516 93.8637 20.1604C94.1724 20.37 94.5272 20.5255 94.9282 20.6209C95.3287 20.7188 95.7539 20.7675 96.2071 20.7675C97.1131 20.7675 97.8561 20.6627 98.4364 20.4527C99.0181 20.2402 99.4898 19.986 99.8516 19.6867L100.828 21.6002ZM95.9395 13.5611C95.5464 13.5611 95.1764 13.6139 94.8294 13.722C94.482 13.8293 94.1691 13.9853 93.8909 14.1928C93.6097 14.3991 93.3821 14.6558 93.1998 14.9604C93.0195 15.2666 92.9145 15.6121 92.8824 15.9933H98.4533C98.4533 15.2441 98.245 14.6509 97.8289 14.2157C97.4148 13.7806 96.7842 13.5611 95.9395 13.5611Z" fill="white"/>
<path d="M111.426 19.6875C111.426 19.3879 111.242 19.148 110.87 18.9654C110.501 18.7861 110.043 18.6207 109.502 18.4721C108.958 18.3202 108.361 18.1659 107.712 18.0083C107.064 17.8506 106.467 17.6333 105.922 17.3557C105.379 17.0773 104.922 16.7248 104.554 16.2979C104.184 15.8692 103.998 15.3162 103.998 14.6427C103.998 14.0864 104.123 13.5976 104.371 13.1788C104.62 12.7583 104.96 12.4001 105.39 12.1099C105.821 11.8155 106.334 11.5941 106.93 11.4446C107.525 11.2944 108.173 11.2207 108.867 11.2207C109.604 11.2207 110.254 11.2719 110.813 11.3767C111.371 11.4815 111.859 11.61 112.274 11.7607C112.689 11.9101 113.043 12.0779 113.339 12.2667C113.633 12.4554 113.885 12.6224 114.097 12.7727L112.853 14.7766C112.625 14.6431 112.365 14.5039 112.072 14.3607C111.777 14.219 111.467 14.0864 111.142 13.9672C110.819 13.8465 110.479 13.7499 110.124 13.6721C109.768 13.5976 109.417 13.5611 109.07 13.5611C108.436 13.5611 107.924 13.6434 107.531 13.8096C107.139 13.9734 106.942 14.2301 106.942 14.5748C106.942 14.8458 107.126 15.0632 107.497 15.2281C107.866 15.3935 108.324 15.547 108.868 15.6887C109.409 15.8328 110.006 15.9871 110.655 16.1525C111.304 16.3155 111.9 16.5316 112.445 16.7924C112.987 17.0556 113.445 17.3983 113.815 17.8175C114.183 18.2387 114.371 18.7787 114.371 19.4399C114.371 20.5808 113.95 21.4774 113.111 22.1303C112.274 22.7829 111.033 23.11 109.388 23.11C108.089 23.11 106.969 22.9188 106.025 22.5368C105.082 22.1528 104.322 21.707 103.75 21.1977L105.11 19.0796C105.307 19.245 105.565 19.4292 105.89 19.6323C106.214 19.8337 106.58 20.02 106.987 20.1849C107.395 20.3495 107.828 20.4879 108.29 20.6009C108.749 20.7134 109.207 20.7704 109.659 20.7704C110.143 20.7704 110.557 20.6881 110.905 20.5227C111.252 20.3552 111.426 20.0777 111.426 19.6875Z" fill="white"/>
<path d="M126.126 5.68482C125.153 7.43902 124.43 9.13919 123.959 10.7853C123.487 12.4294 123.249 14.0739 123.249 15.7188C123.249 17.3481 123.486 18.993 123.959 20.6465C124.43 22.3024 125.151 24.0128 126.126 25.774H123.605C122.432 24.0771 121.563 22.4052 120.995 20.7542C120.427 19.1093 120.145 17.4271 120.145 15.7175C120.145 14.0145 120.43 12.3352 121.001 10.6793C121.574 9.02415 122.441 7.35715 123.605 5.68359H126.126V5.68482Z" fill="white"/>
<path d="M132.957 5.68359H135.477C136.642 7.35796 137.51 9.02415 138.081 10.6793C138.652 12.3352 138.938 14.0141 138.938 15.7175C138.938 17.4271 138.655 19.1093 138.087 20.7542C137.519 22.4044 136.65 24.0771 135.477 25.7732H132.957C133.929 24.0116 134.653 22.302 135.125 20.6465C135.597 18.993 135.834 17.3473 135.834 15.7188C135.834 14.0739 135.598 12.4294 135.125 10.7853C134.653 9.13796 133.93 7.43779 132.957 5.68359Z" fill="white"/>
</svg>
