<svg width="20" height="20" viewBox="0 0 20 20" fill="none" xmlns="http://www.w3.org/2000/svg">
<rect width="20" height="20" rx="4" fill="currentColor"/>
<path d="M16 6.1545C15.5585 6.3505 15.084 6.4825 14.586 6.542C15.0945 6.2375 15.485 5.755 15.6685 5.18C15.193 5.462 14.666 5.667 14.105 5.7775C13.6565 5.299 13.016 5 12.308 5C10.7185 5 9.5505 6.483 9.9095 8.0225C7.864 7.92 6.05 6.94 4.8355 5.4505C4.1905 6.557 4.501 8.0045 5.597 8.7375C5.194 8.7245 4.814 8.614 4.4825 8.4295C4.4555 9.57 5.273 10.637 6.457 10.8745C6.1105 10.9685 5.731 10.9905 5.345 10.9165C5.658 11.8945 6.567 12.606 7.645 12.626C6.61 13.4375 5.306 13.8 4 13.646C5.0895 14.3445 6.384 14.752 7.774 14.752C12.345 14.752 14.9275 10.8915 14.7715 7.429C15.2525 7.0815 15.67 6.648 16 6.1545V6.1545Z" fill="#F2F4F6"/>
</svg>
