<svg width="18" height="18" viewBox="0 0 18 18" fill="none" xmlns="http://www.w3.org/2000/svg">
<circle cx="9" cy="9" r="8.5" fill="#C4C4C4" stroke="currentColor"/>
<mask id="usa" mask-type="alpha" maskUnits="userSpaceOnUse" x="1" y="1" width="16" height="16">
<circle cx="9" cy="9" r="8" fill="#C4C4C4"/>
</mask>
<g mask="url(#usa)">
<path fill-rule="evenodd" clip-rule="evenodd" d="M-14 -7.26562H44V-4.91653H-14V-7.26562ZM-14 -2.56743H44V-0.218339H-14V-2.56743ZM-14 2.12479H44V4.47985H-14V2.12479ZM-14 6.82299H44V9.17208H-14V6.82299ZM-14 11.5212H44V13.8703H-14V11.5212ZM-14 16.2134H44V18.5625H-14V16.2134ZM-14 20.9116H44V23.2607H-14V20.9116Z" fill="#BD3D44"/>
<path fill-rule="evenodd" clip-rule="evenodd" d="M-14 -4.91797H44V-2.56887H-14V-4.91797ZM-14 -0.219778H44V2.12335H-14V-0.219778ZM-14 4.47245H44V6.82155H-14V4.47245ZM-14 9.17064H44V11.5197H-14V9.17064ZM-14 13.8688H44V16.2179H-14V13.8688ZM-14 18.5611H44V20.9102H-14V18.5611Z" fill="white"/>
<path fill-rule="evenodd" clip-rule="evenodd" d="M-14 -7.26562H9.19881V9.17208H-14V-7.26562Z" fill="#192F5D"/>
<path fill-rule="evenodd" clip-rule="evenodd" d="M-12.0676 -6.5625L-11.853 -5.91262H-11.1733L-11.7218 -5.51316L-11.5131 -4.85732L-12.0676 -5.26275L-12.6161 -4.86328L-12.4074 -5.51316L-12.9619 -5.91262H-12.2703L-12.0676 -6.5625ZM-8.19814 -6.5625L-7.98946 -5.91262H-7.30381L-7.8583 -5.51316L-7.64962 -4.85732L-8.19814 -5.26275L-8.75262 -4.86328L-8.54395 -5.51316L-9.09247 -5.91262H-8.41278L-8.19814 -6.5625ZM-4.33465 -6.5625L-4.12002 -5.91262H-3.44629L-3.99481 -5.51316L-3.78613 -4.85732L-4.34062 -5.26275L-4.88913 -4.86328L-4.68046 -5.51316L-5.23494 -5.91262H-4.54929L-4.33465 -6.5625ZM-0.465204 -6.5625L-0.256528 -5.91262H0.429122L-0.12536 -5.51316L0.0892782 -4.85732L-0.465204 -5.26275L-1.01969 -4.86328L-0.805048 -5.51316L-1.35953 -5.91262H-0.679843L-0.465204 -6.5625ZM3.39828 -6.5625L3.61292 -5.91262H4.29261L3.74409 -5.51316L3.95276 -4.85732L3.39828 -5.26275L2.84976 -4.86328L3.05844 -5.51316L2.50992 -5.91262H3.18961L3.39828 -6.5625ZM7.26773 -6.5625L7.47641 -5.91262H8.16206L7.60757 -5.51316L7.82221 -4.85732L7.26773 -5.26275L6.71325 -4.86328L6.92789 -5.51316L6.37341 -5.91262H7.05906L7.26773 -6.5625ZM-10.1299 -4.91694L-9.92121 -4.26707H-9.23556L-9.79004 -3.8676L-9.58733 -3.21772L-10.1239 -3.61719L-10.6784 -3.21772L-10.4817 -3.8676L-11.0182 -4.26707H-10.3386L-10.1299 -4.91694ZM-6.2664 -4.91694L-6.05176 -4.26707H-5.37207L-5.92655 -3.8676L-5.71191 -3.21772L-6.2664 -3.61719L-6.82088 -3.21772L-6.60624 -3.8676L-7.16072 -4.26707H-6.47507L-6.2664 -4.91694ZM-2.39695 -4.91694L-2.18827 -4.26707H-1.50262L-2.0571 -3.8676L-1.84843 -3.21772L-2.39695 -3.61719L-2.95143 -3.21772L-2.74275 -3.8676L-3.29127 -4.26707H-2.61159L-2.39695 -4.91694ZM1.46654 -4.91694L1.68118 -4.26707H2.36086L1.80638 -3.8676L2.02102 -3.21772L1.46654 -3.61719L0.918019 -3.21772L1.1267 -3.8676L0.572213 -4.26707H1.26383L1.46654 -4.91694ZM5.33599 -4.91694L5.54466 -4.26707H6.23031L5.67583 -3.8676L5.88451 -3.21772L5.33599 -3.61719L4.78151 -3.21772L4.99018 -3.8676L4.44166 -4.26707H5.12135L5.33599 -4.91694ZM-12.0676 -3.27735L-11.853 -2.61555H-11.1733L-11.7218 -2.21608L-11.5131 -1.5662L-12.0676 -1.97163L-12.6161 -1.5662L-12.4074 -2.22204L-12.9619 -2.62151H-12.2703L-12.0676 -3.27735ZM-8.19814 -3.27735L-7.98946 -2.62151H-7.30381L-7.8583 -2.22204L-7.64962 -1.57217L-8.19814 -1.97759L-8.75262 -1.57217L-8.54395 -2.228L-9.09247 -2.62747H-8.41278L-8.19814 -3.27735ZM-4.33465 -3.27735L-4.12002 -2.62151H-3.44629L-3.99481 -2.22204L-3.78613 -1.57217L-4.34062 -1.97759L-4.88913 -1.57217L-4.68046 -2.228L-5.23494 -2.62747H-4.54929L-4.33465 -3.27735ZM-0.465204 -3.27735L-0.256528 -2.62151H0.429122L-0.12536 -2.22204L0.0892782 -1.57217L-0.465204 -1.97759L-1.01969 -1.57217L-0.805048 -2.228L-1.35953 -2.62747H-0.679843L-0.465204 -3.27735ZM3.39828 -3.27735L3.61292 -2.62151H4.29261L3.74409 -2.22204L3.95276 -1.57217L3.39828 -1.97759L2.84976 -1.57217L3.05844 -2.228L2.50992 -2.62747H3.18961L3.39828 -3.27735ZM7.26773 -3.27735L7.47641 -2.62151H8.16206L7.60757 -2.22204L7.82221 -1.57217L7.26773 -1.97759L6.71325 -1.57217L6.92789 -2.228L6.37341 -2.62747H7.05906L7.26773 -3.27735ZM-10.1299 -1.63179L-9.92121 -0.981911H-9.23556L-9.79004 -0.582446L-9.58136 0.0733929L-10.1299 -0.332035L-10.6844 0.0674305L-10.4757 -0.582446L-11.0242 -0.981911H-10.3445L-10.1299 -1.63179ZM-6.2664 -1.63179L-6.05176 -0.981911H-5.37207L-5.92655 -0.582446L-5.71191 0.0733929L-6.2664 -0.332035L-6.82088 0.0674305L-6.60624 -0.582446L-7.16072 -0.981911H-6.47507L-6.2664 -1.63179ZM-2.39695 -1.63179L-2.18827 -0.981911H-1.50262L-2.0571 -0.582446L-1.84843 0.0733929L-2.39695 -0.332035L-2.95143 0.0674305L-2.74275 -0.582446L-3.29127 -0.981911H-2.61159L-2.39695 -1.63179ZM1.46654 -1.63179L1.68118 -0.981911H2.36086L1.81235 -0.582446L2.02102 0.0733929L1.46654 -0.332035L0.918019 0.0674305L1.1267 -0.582446L0.572213 -0.981911H1.26383L1.46654 -1.63179ZM5.33599 -1.63179L5.54466 -0.981911H6.23031L5.67583 -0.582446L5.88451 0.0733929L5.33599 -0.332035L4.78151 0.0674305L4.99018 -0.582446L4.44166 -0.981911H5.12135L5.33599 -1.63179ZM-12.0676 0.0137711L-11.853 0.663648H-11.1733L-11.7218 1.06311L-11.5131 1.71895L-12.0676 1.31352L-12.6161 1.71299L-12.4074 1.06311L-12.9619 0.663648H-12.2703L-12.0676 0.0137711ZM-8.19814 0.0137711L-7.98946 0.663648H-7.30381L-7.8583 1.06311L-7.64962 1.71299L-8.19814 1.31352L-8.75262 1.71299L-8.54395 1.06311L-9.09247 0.663648H-8.41278L-8.19814 0.0137711ZM-4.33465 0.0137711L-4.12002 0.663648H-3.44629L-3.99481 1.06311L-3.78613 1.71895L-4.34062 1.31352L-4.88913 1.71299L-4.68046 1.06311L-5.23494 0.663648H-4.54929L-4.33465 0.0137711ZM-0.465204 0.0137711L-0.256528 0.663648H0.429122L-0.12536 1.06311L0.0892782 1.71895L-0.465204 1.31352L-1.01969 1.71299L-0.805048 1.06311L-1.35953 0.663648H-0.679843L-0.465204 0.0137711ZM3.39828 0.0137711L3.61292 0.663648H4.29261L3.74409 1.06311L3.95276 1.71895L3.39828 1.31352L2.84976 1.71299L3.05844 1.06311L2.50992 0.663648H3.18961L3.39828 0.0137711ZM7.26773 0.0137711L7.47641 0.663648H8.16206L7.60757 1.06311L7.82221 1.71895L7.26773 1.31352L6.71325 1.71299L6.92789 1.06311L6.37341 0.663648H7.05906L7.26773 0.0137711ZM-10.1299 1.65933L-9.92121 2.30921H-9.23556L-9.79004 2.70867L-9.58136 3.35855L-10.1299 2.95312L-10.6844 3.35855L-10.4757 2.70271L-11.0242 2.30324H-10.3445L-10.1299 1.65933ZM-6.2664 1.65933L-6.05176 2.30921H-5.37207L-5.92655 2.70867L-5.71191 3.35855L-6.2664 2.95312L-6.82088 3.35855L-6.60624 2.70271L-7.16072 2.30324H-6.47507L-6.2664 1.65933ZM-2.39695 1.65933L-2.18827 2.30921H-1.50262L-2.0571 2.70867L-1.84843 3.35855L-2.39695 2.95312L-2.95143 3.35855L-2.74275 2.70271L-3.29127 2.30324H-2.61159L-2.39695 1.65933ZM1.46654 1.65933L1.68118 2.30921H2.36086L1.81235 2.70867L2.02102 3.35855L1.46654 2.95312L0.918019 3.35855L1.1267 2.70271L0.572213 2.30324H1.26383L1.46654 1.65933ZM5.33599 1.65933L5.54466 2.30921H6.23031L5.67583 2.70867L5.88451 3.35855L5.33599 2.95312L4.78151 3.35855L4.99018 2.70271L4.44166 2.30324H5.12135L5.33599 1.65933ZM-12.0676 3.29893L-11.853 3.95476H-11.1733L-11.7218 4.35423L-11.5131 4.99814L-12.0676 4.59868L-12.6161 4.99814L-12.4074 4.34827L-12.9619 3.9488H-12.2703L-12.0676 3.29893ZM-8.19814 3.29893L-7.98946 3.95476H-7.30381L-7.8583 4.35423L-7.64366 4.99814L-8.19814 4.59868L-8.75262 4.99814L-8.53798 4.34827L-9.09247 3.9488H-8.41278L-8.19814 3.29893ZM-4.33465 3.29893L-4.12002 3.95476H-3.44629L-3.99481 4.35423L-3.78613 4.99814L-4.34062 4.59868L-4.88913 4.99814L-4.68046 4.34827L-5.23494 3.9488H-4.54929L-4.33465 3.29893ZM-0.465204 3.29893L-0.256528 3.95476H0.429122L-0.12536 4.35423L0.0892782 4.99814L-0.465204 4.59868L-1.01969 4.99814L-0.805048 4.34827L-1.35953 3.9488H-0.679843L-0.465204 3.29893ZM3.39828 3.29893L3.61292 3.95476H4.29261L3.74409 4.35423L3.95276 4.99814L3.39828 4.59868L2.84976 4.99814L3.05844 4.34827L2.50992 3.9488H3.18961L3.39828 3.29893ZM7.26773 3.29893L7.47641 3.95476H8.16206L7.60757 4.35423L7.82221 4.99814L7.26773 4.59868L6.71325 4.99814L6.92789 4.34827L6.37341 3.9488H7.05906L7.26773 3.29893ZM-10.1299 4.94448L-9.92121 5.59436H-9.23556L-9.79004 5.99382L-9.58136 6.64966L-10.1299 6.24424L-10.6844 6.6437L-10.4757 5.99382L-11.0242 5.59436H-10.3445L-10.1299 4.94448ZM-6.2664 4.94448L-6.05176 5.59436H-5.37207L-5.92655 5.99382L-5.71191 6.64966L-6.2664 6.24424L-6.82088 6.6437L-6.60624 5.99382L-7.16072 5.59436H-6.47507L-6.2664 4.94448ZM-2.39695 4.94448L-2.18827 5.59436H-1.50262L-2.0571 5.99382L-1.84843 6.64966L-2.39695 6.24424L-2.95143 6.6437L-2.74275 5.99382L-3.29127 5.59436H-2.61159L-2.39695 4.94448ZM1.46654 4.94448L1.68118 5.59436H2.36086L1.81235 5.99382L2.02102 6.64966L1.46654 6.24424L0.918019 6.6437L1.1267 5.99382L0.572213 5.59436H1.26383L1.46654 4.94448ZM5.33599 4.94448L5.54466 5.59436H6.23031L5.67583 5.99382L5.88451 6.64966L5.33599 6.24424L4.78151 6.6437L4.99018 5.99382L4.44166 5.59436H5.12135L5.33599 4.94448ZM-12.0676 6.59004L-11.853 7.23992H-11.1733L-11.7218 7.63938L-11.5131 8.28926L-12.0676 7.8898L-12.6161 8.28926L-12.4074 7.63342L-12.9619 7.23396H-12.2703L-12.0676 6.59004ZM-8.19814 6.59004L-7.98946 7.23992H-7.30381L-7.8583 7.63938L-7.64366 8.28926L-8.19814 7.8898L-8.75262 8.28926L-8.53798 7.63342L-9.09247 7.23396H-8.41278L-8.19814 6.59004ZM-4.33465 6.59004L-4.12002 7.23992H-3.44629L-3.98288 7.63938L-3.77421 8.28926L-4.32869 7.8898L-4.87721 8.28926L-4.66853 7.63342L-5.22302 7.23396H-4.53737L-4.33465 6.59004ZM-0.465204 6.59004L-0.256528 7.23992H0.429122L-0.12536 7.63938L0.0892782 8.28926L-0.465204 7.8898L-1.01969 8.28926L-0.805048 7.63342L-1.35953 7.23396H-0.679843L-0.465204 6.59004ZM3.39828 6.59004L3.61292 7.23992H4.29261L3.74409 7.63938L3.95276 8.28926L3.39828 7.8898L2.84976 8.28926L3.05844 7.63342L2.50992 7.23396H3.18961L3.39828 6.59004ZM7.26773 6.59004L7.47641 7.23992H8.16206L7.60757 7.63938L7.82221 8.28926L7.26773 7.8898L6.71325 8.28926L6.92789 7.63342L6.37341 7.23396H7.05906L7.26773 6.59004Z" fill="white"/>
</g>
</svg>
